# AST/ASF file generated using VICON BodyLanguage
# -----------------------------------------------
:version 1.10
:name VICON
:units
  mass 1.0
  length 0.45
  angle deg
:documentation
   .ast/.asf automatically generated from VICON data using
   VICON BodyBuilder and BodyLanguage model FoxedUp or BRILLIANT.MOD
:root
   order TX TY TZ RX RY RZ
   axis XYZ
   position 0 0 0  
   orientation 0 0 0 
:bonedata
  begin
     id 1 
     name lhipjoint
     direction 0.440178 -0.822639 0.359871 
     length 2.53113 
     axis 0 0 0  XYZ
  end
  begin
     id 2 
     name lfemur
     direction 0.34202 -0.939693 0  
     length 7.88132  
     axis 0 0 20  XYZ
    dof rx ry rz
    limits (-160.0 20.0)
           (-70.0 70.0)
           (-60.0 70.0)
  end
  begin
     id 3 
     name ltibia
     direction 0.34202 -0.939693 0   
     length 8.43783   
     axis 0 0 20   XYZ
    dof rx
    limits (-10.0 170.0)
  end
  begin
     id 4 
     name lfoot
     direction 0.0886351 -0.243523 0.965837   
     length 2.63414   
     axis -90 7.62852e-016 20   XYZ
    dof rx rz
    limits (-45.0 90.0)
           (-70.0 20.0)
  end
  begin
     id 5 
     name ltoes
     direction 1.53703e-011 -4.21717e-011 1   
     length 1.31427   
     axis -90 7.62852e-016 20   XYZ
    dof rx
    limits (-90.0 20.0)
  end
  begin
     id 6 
     name rhipjoint
     direction -0.399779 -0.839773 0.367367   
     length 2.47948  
     axis 0 0 0  XYZ 
  end
  begin
     id 7 
     name rfemur
     direction -0.34202 -0.939693 0   
     length 7.74806   
     axis 0 0 -20   XYZ
    dof rx ry rz
    limits (-160.0 20.0)
           (-70.0 70.0)
           (-70.0 60.0)
  end
  begin
     id 8 
     name rtibia
     direction -0.34202 -0.939693 0   
     length 8.74432   
     axis 0 0 -20   XYZ
    dof rx
    limits (-10.0 170.0)
 end
 begin
     id 9 
     name rfoot
     direction -0.108514 -0.298139 0.948334   
     length 2.66102  
     axis -90 -7.62852e-016 -20   XYZ
    dof rx rz
    limits (-45.0 90.0)
           (-20.0 70.0)
  end
  begin
     id 10 
     name rtoes
     direction -1.53392e-011 -4.22077e-011 1   
     length 1.31983   
     axis -90 -7.62852e-016 -20   XYZ
    dof rx
    limits (-90.0 20.0)
  end
  begin
     id 11 
     name lowerback
     direction 0.0113257 0.999866 0.0118602   
     length 2.58694   
     axis 0 0 0   XYZ
    dof rx ry rz
    limits (-20.0 45.0)
           (-30.0 30.0)
           (-30.0 30.0)
  end
  begin
     id 12 
     name upperback
     direction -0.0164747 0.995193 -0.0965375   
     length 2.52368   
     axis 0 0 0   XYZ
    dof rx ry rz
    limits (-20.0 45.0)
           (-30.0 30.0)
           (-30.0 30.0)
  end
  begin
     id 13 
     name thorax
     direction -0.0194301 0.99433 -0.104552   
     length 2.56099   
     axis 0 0 0   XYZ
    dof rx ry rz
    limits (-20.0 45.0)
           (-30.0 30.0)
           (-30.0 30.0)
  end
  begin
     id 14 
     name lowerneck
     direction 0.0148543 0.995587 -0.092657   
     length 1.71582   
     axis 0 0 0   XYZ
    dof rx ry rz
    limits (-20.0 45.0)
           (-30.0 30.0)
           (-30.0 30.0)
  end
  begin
     id 15 
     name upperneck
     direction -0.0135467 0.993656 -0.111639   
     length 1.68937   
     axis 0 0 0   XYZ
    dof rx ry rz
    limits (-20.0 45.0)
           (-30.0 30.0)
           (-30.0 30.0)
  end
  begin
     id 16
     name head
     direction -0.00615349 0.999547 -0.029448  
     length 1.7462  
     axis 0 0 0   XYZ
    dof rx ry rz
    limits (-20.0 45.0)
           (-30.0 30.0)
           (-30.0 30.0)
  end
  begin
     id 17 
     name lclavicle
     direction 0.988267 0.149885 0.0293713  
     length 4.47222  
     axis 0 0 0   XYZ
    dof ry rz
    limits (-20.0 10.0)
           (0.0 20.0)
  end
  begin
     id 18 
     name lhumerus
     direction 1 -4.48986e-011 -1.14833e-027   
     length 5.37148   
     axis 180 -30 -90   XYZ
    dof rx ry rz
    limits (-60.0 90.0)
           (-90.0 90.0)
           (-90.0 90.0)
  end
  begin
     id 19
     name lradius
     direction 0.999998 0.00170963 -0.000987055   
     length 3.94212   
     axis 180 -30 -90   XYZ
    dof rx
    limits (-10.0 170.0)
  end
  begin
     id 20
     name lwrist
     direction 0.999998 7.53149e-005 -0.00194706   
     length 1.97106   
     axis 4.65056e-015 90 90   XYZ
    dof ry
    limits (-180.0 0.0)
 end
  begin
     id 21 
     name lhand
     direction 1 -4.48973e-011 -1.31746e-026   
     length 1.17917   
     axis 8.4065e-015 90 90   XYZ
    dof rx rz
    limits (-90.0 90.0)
           (-45.0 45.0)
  end
  begin
     id 22 
     name lfingers
     direction 1 -4.49107e-011 -2.63492e-026   
     length 0.950679   
     axis 1.6813e-014 90 90   XYZ
    dof rx
    limits (0.0 90.0)
  end
  begin
     id 23
     name lthumb
     direction 0.707107 -6.35048e-011 0.707107   
     length 1.36499   
     axis -90 45 2.85299e-015   XYZ
    dof rx rz
    limits (-45.0 45.0)
           (-45.0 45.0)
  end
  begin
     id 24 
     name rclavicle
     direction -0.996699 0.0642895 -0.0495725   
     length 4.62611  
     axis 0 0 0   XYZ 
    dof ry rz
    limits (-10.0 20.0)
           (-20.0 0.0)
  end
  begin
     id 25 
     name rhumerus
     direction -1 -4.48919e-011 -2.41059e-027  
     length 5.4981   
     axis 180 30 90   XYZ
    dof rx ry rz
    limits (-90.0 60.0)
           (-90.0 90.0)
           (-90.0 90.0)
  end
  begin
     id 26 
     name rradius
     direction -0.999999 0.00118101 -0.000681858   
     length 3.48381   
     axis 180 30 90   XYZ
    dof rx
    limits (-10.0 170.0)
  end
  begin
     id 27 
     name rwrist
     direction -0.999999 0.000321823 -0.00132288   
     length 1.7419   
     axis 4.65056e-015 -90 -90   XYZ
    dof ry
    limits (-180.0 0.0)
  end
  begin
     id 28
     name rhand
     direction -1 -4.49022e-011 -1.31746e-026   
     length 1.34932   
     axis 8.4065e-015 -90 -90   XYZ
    dof rx rz
    limits (-90.0 90.0)
           (-45.0 45.0)
  end
  begin
     id 29
     name rfingers
     direction -1 -4.49178e-011 -2.63492e-026   
     length 1.08785   
     axis 1.6813e-014 -90 -90   XYZ
    dof rx
    limits (0.0 90.0)
  end
  begin
     id 30
     name rthumb
     direction -0.707107 -6.34713e-011 0.707107   
     length 1.56195   
     axis -90 -45 -2.85299e-015   XYZ
    dof rx rz
    limits (-45.0 45.0)
           (-45.0 45.0)
  end
:hierarchy
  begin
    root lhipjoint rhipjoint lowerback
    lhipjoint lfemur
    lfemur ltibia
    ltibia lfoot
    lfoot ltoes
    rhipjoint rfemur
    rfemur rtibia
    rtibia rfoot
    rfoot rtoes
    lowerback upperback
    upperback thorax
    thorax lowerneck lclavicle rclavicle
    lowerneck upperneck
    upperneck head
    lclavicle lhumerus
    lhumerus lradius
    lradius lwrist
    lwrist lhand lthumb
    lhand lfingers
    rclavicle rhumerus
    rhumerus rradius
    rradius rwrist
    rwrist rhand rthumb
    rhand rfingers
  end

#!OML:ASF X:\für Bonn\!DataBase\2005_08_10_Bjorn_Final\c3d\bjorn.ASF
:FULLY-SPECIFIED
:DEGREES
1
root 0.187251 19.2494 2.68045 -171.963 -2.97684 179.346
lowerback -2.78091 0.950021 4.04858
upperback 3.82786 1.03281 -1.76488
thorax 5.6527 0.679757 -4.03892
lowerneck -15.2822 -1.18917 3.74428
upperneck 14.0934 -2.24535 -1.73468
head 6.75079 -1.06405 -1.40224
rclavicle -3.70236e-015 5.36719e-015
rhumerus 79.1433 1.95043 -65.7134
rradius 6.49236
rwrist 39.4396
rhand -9.05406 5.13854
rfingers 7.12502
rthumb 16.8944 -24.1466
lclavicle -3.70236e-015 5.36719e-015
lhumerus 83.5643 -7.21118 60.44
lradius 6.52783
lwrist -58.2212
lhand -15.1128 -8.51634
lfingers 7.12502
lthumb 11.056 21.1725
rfemur -19.9386 -21.3801 17.5366
rtibia 31.6443
rfoot -13.4825 24.1021
rtoes -11.2435
lfemur -18.0736 15.0442 -19.2272
ltibia 30.3852
lfoot -16.8927 -21.5126
ltoes -11.2045
2
root 0.191568 19.2429 2.66327 -172.201 -2.95882 179.241
lowerback -3.02318 0.966083 3.91156
upperback 3.95033 1.0489 -1.80177
thorax 5.92041 0.688817 -3.99702
lowerneck -15.3269 -1.21249 3.6985
upperneck 14.1582 -2.27444 -1.70873
head 6.77936 -1.07802 -1.39067
rclavicle 7.95139e-015 1.65985e-014
rhumerus 79.1888 1.98568 -66.0157
rradius 6.49927
rwrist 39.1928
rhand -8.7829 5.13361
rfingers 7.12502
rthumb 17.1554 -24.129
lclavicle 7.95139e-015 1.65985e-014
lhumerus 83.4199 -7.411 60.3675
lradius 6.78671
lwrist -57.4109
lhand -14.6561 -8.34965
lfingers 7.12502
lthumb 11.4964 21.3151
rfemur -19.5939 -20.6807 17.2793
rtibia 31.67
rfoot -13.814 23.4778
rtoes -11.6017
lfemur -17.7257 14.4163 -19.2349
ltibia 30.3463
lfoot -16.8358 -20.9514
ltoes -10.6963
3
root 0.194464 19.2359 2.64909 -172.473 -2.9438 179.179
lowerback -3.16509 0.974554 3.79468
upperback 4.08233 1.05461 -1.80151
thorax 6.13956 0.690791 -3.92929
lowerneck -15.4358 -1.22637 3.6207
upperneck 14.226 -2.28384 -1.68606
head 6.82076 -1.08399 -1.3737
rclavicle 1.93815e-015 7.45443e-015
rhumerus 79.2558 2.02681 -66.2809
rradius 6.51216
rwrist 38.9428
rhand -8.47192 5.1477
rfingers 7.12502
rthumb 17.4547 -24.0887
lclavicle 1.93815e-015 7.45443e-015
lhumerus 83.3345 -7.56425 60.3295
lradius 6.9217
lwrist -56.6817
lhand -14.3841 -8.10169
lfingers 7.12502
lthumb 11.7588 21.5482
rfemur -19.2337 -20.0484 17.0716
rtibia 31.701
rfoot -14.1642 22.8877
rtoes -12.1462
lfemur -17.3601 13.6743 -19.2055
ltibia 30.3154
lfoot -16.8533 -20.2154
ltoes -10.507
4
root 0.1985 19.2285 2.63724 -172.749 -2.94529 179.127
lowerback -3.23376 0.979718 3.68006
upperback 4.203 1.05831 -1.80199
thorax 6.30469 0.689968 -3.86448
lowerneck -15.5885 -1.24242 3.61069
upperneck 14.3112 -2.30424 -1.71375
head 6.87356 -1.09579 -1.3859
rclavicle -5.36719e-015 1.31198e-014
rhumerus 79.3283 2.06577 -66.5568
rradius 6.36584
rwrist 39.2086
rhand -8.4925 5.23064
rfingers 7.12502
rthumb 17.4349 -24.0075
lclavicle -5.36719e-015 1.31198e-014
lhumerus 83.2619 -7.72733 60.2829
lradius 7.01101
lwrist -55.9968
lhand -14.196 -7.89306
lfingers 7.12502
lthumb 11.9401 21.7464
rfemur -18.8048 -19.2533 16.8972
rtibia 31.73
rfoot -14.8559 21.9789
rtoes -13.4702
lfemur -17.0028 12.7998 -19.158
ltibia 30.2933
lfoot -16.8204 -19.4428
ltoes -9.94044
5
root 0.202709 19.2221 2.62758 -173.003 -2.98552 179.147
lowerback -3.30684 0.967366 3.64729
upperback 4.34746 1.03106 -1.78099
thorax 6.49674 0.677455 -3.82625
lowerneck -15.8547 -1.24539 3.56071
upperneck 14.4249 -2.30925 -1.6911
head 6.95667 -1.09705 -1.37537
rclavicle 9.6659e-015 8.44835e-015
rhumerus 79.4213 2.11119 -66.8401
rradius 6.24761
rwrist 39.6485
rhand -8.61907 5.28626
rfingers 7.12502
rthumb 17.3131 -23.9626
lclavicle 9.6659e-015 8.44835e-015
lhumerus 83.1706 -7.85716 60.2249
lradius 7.18309
lwrist -55.3651
lhand -13.7843 -7.8682
lfingers 7.12502
lthumb 12.3371 21.7478
rfemur -18.4113 -18.4854 16.8227
rtibia 31.7536
rfoot -15.4164 21.127
rtoes -14.4555
lfemur -16.6449 11.8665 -19.0519
ltibia 30.3067
lfoot -17.0457 -18.4878
ltoes -10.1056
6
root 0.208376 19.2157 2.61999 -173.257 -3.03876 179.254
lowerback -3.32048 0.966507 3.70417
upperback 4.4644 1.01647 -1.75751
thorax 6.62911 0.674214 -3.83541
lowerneck -16.0392 -1.23837 3.60574
upperneck 14.4932 -2.31789 -1.68087
head 7.00984 -1.09655 -1.3832
rclavicle -1.32192e-014 3.47873e-015
rhumerus 79.4528 2.11661 -67.1488
rradius 6.16145
rwrist 40.0196
rhand -8.63007 5.36804
rfingers 7.12502
rthumb 17.3025 -23.8818
lclavicle -1.32192e-014 3.47873e-015
lhumerus 83.0558 -8.07104 60.1473
lradius 7.37871
lwrist -54.785
lhand -13.3913 -7.92982
lfingers 7.12502
lthumb 12.716 21.663
rfemur -18.0435 -17.7458 16.8751
rtibia 31.7717
rfoot -15.975 20.2584
rtoes -15.4369
lfemur -16.3213 11.0477 -18.857
ltibia 30.3484
lfoot -17.2732 -17.6339
ltoes -10.4007
